<svg width="400" height="400" viewBox="0 0 400 400" fill="none" xmlns="http://www.w3.org/2000/svg">
<rect width="400" height="400" fill="black"/>
<path id="letter-H-pink" d="M239.28 332.128V298.08H229.04V332.128H206V244.064H229.04V277.6H239.28V244.064H262.32V332.128H239.28Z" fill="#FF769F"/>
<path id="letter-A-red" d="M176.752 332.128L174.704 317.152H158.704L156.656 332.128H134L150.128 244.064H183.792L199.92 332.128H176.752ZM167.152 264.416H166.256L161.52 298.848H171.888L167.152 264.416Z" fill="#FD002D"/>
<path id="letter-A-blue" d="M243.752 155.064L241.704 140.088H225.704L223.656 155.064H201L217.128 67H250.792L266.92 155.064H243.752ZM234.152 87.352H233.256L228.52 121.784H238.888L234.152 87.352Z" fill="#0271FF"/>
<path id="letter-H-yellow" d="M172.28 155.064V121.016H162.04V155.064H139V67H162.04V100.536H172.28V67H195.32V155.064H172.28Z" fill="#FFB50D"/>
</svg>
