<svg width="400" height="400" viewBox="0 0 400 400" fill="none" xmlns="http://www.w3.org/2000/svg">
<path id="ignore" d="M400 0H0V400H400V0Z" fill="url(#paint0_radial_450_452)"/>
<path id="letter-H" d="M238 258H132C126 258 121.2 258.867 117.6 260.6C113.867 262.2 112 266 112 272V274H106V250C106 245.333 106.8 241.733 108.4 239.2C110 236.533 112.667 234.667 116.4 233.6C120.133 232.533 125.333 232 132 232H165V178H106L106 152H212C218 152 222.867 151.2 226.6 149.6C230.2 147.867 232 144 232 138V136H238V160C238 164.667 237.267 168.333 235.8 171C234.2 173.533 231.533 175.333 227.8 176.4C223.933 177.467 218.667 178 212 178H174V232H238V258Z" fill="black"/>
<path id="custom-rectangle" d="M260.952 183.143C260.952 179.829 263.638 177.143 266.952 177.143H280.666C283.98 177.143 286.666 179.829 286.666 183.143V271.429H260.952V183.143Z" fill="black"/>
<g id="custom-circle-orange" filter="url(#filter0_d_450_452)">
<circle cx="274.19" cy="308.476" r="18" fill="url(#paint1_radial_450_452)"/>
</g>
<defs>
<filter id="filter0_d_450_452" x="248.19" y="282.476" width="52" height="52" filterUnits="userSpaceOnUse" color-interpolation-filters="sRGB">
<feFlood flood-opacity="0" result="BackgroundImageFix"/>
<feColorMatrix in="SourceAlpha" type="matrix" values="0 0 0 0 0 0 0 0 0 0 0 0 0 0 0 0 0 0 127 0" result="hardAlpha"/>
<feMorphology radius="2" operator="dilate" in="SourceAlpha" result="effect1_dropShadow_450_452"/>
<feOffset/>
<feGaussianBlur stdDeviation="3"/>
<feComposite in2="hardAlpha" operator="out"/>
<feColorMatrix type="matrix" values="0 0 0 0 0.968627 0 0 0 0 0.678431 0 0 0 0 0.160784 0 0 0 0.75 0"/>
<feBlend mode="normal" in2="BackgroundImageFix" result="effect1_dropShadow_450_452"/>
<feBlend mode="normal" in="SourceGraphic" in2="effect1_dropShadow_450_452" result="shape"/>
</filter>
<radialGradient id="paint0_radial_450_452" cx="0" cy="0" r="1" gradientUnits="userSpaceOnUse" gradientTransform="translate(200 200) rotate(90) scale(200)">
<stop stop-color="#FFA1DD"/>
<stop offset="1" stop-color="#EFE5FE"/>
</radialGradient>
<radialGradient id="paint1_radial_450_452" cx="0" cy="0" r="1" gradientUnits="userSpaceOnUse" gradientTransform="translate(274.19 308.476) rotate(180) scale(18)">
<stop offset="0.21" stop-color="#EE3C1E"/>
<stop offset="1" stop-color="#FDA53B"/>
</radialGradient>
<clipPath id="clip0_450_452">
<rect width="400" height="400" fill="white"/>
</clipPath>
</defs>
</svg>
