<svg width="400" height="400" viewBox="0 0 400 400" fill="#021335" xmlns="http://www.w3.org/2000/svg">
<rect id="background" width="400" height="400" fill="#021335"/>
<circle id="orange-circle" cx="129" cy="200" r="15" fill="#F7AD29"/>
<circle id="blue-circle" cx="272" cy="200" r="15" fill="#54B5CA"/>
<path id="letter-Y" d="M46.9863 178.344L54.8379 196.859L62.7188 178.344H73.793L60.082 205.678V221H49.623V205.678L35.8828 178.344H46.9863Z" fill="white"/>
<path id="letter-E" d="M215.607 213.09V221H192.873V213.09H215.607ZM196.535 178.344V221H186.252V178.344H196.535ZM212.678 195.277V202.924H192.873V195.277H212.678ZM215.695 178.344V186.283H192.873V178.344H215.695Z" fill="white"/>
<path id="letter-S" d="M351.225 210.662C351.225 209.998 351.127 209.402 350.932 208.875C350.736 208.328 350.375 207.82 349.848 207.352C349.32 206.883 348.559 206.414 347.562 205.945C346.586 205.457 345.297 204.949 343.695 204.422C341.82 203.797 340.014 203.094 338.275 202.312C336.537 201.512 334.984 200.584 333.617 199.529C332.25 198.455 331.166 197.205 330.365 195.779C329.564 194.334 329.164 192.654 329.164 190.74C329.164 188.904 329.574 187.254 330.395 185.789C331.215 184.305 332.357 183.045 333.822 182.01C335.307 180.955 337.045 180.154 339.037 179.607C341.029 179.041 343.207 178.758 345.57 178.758C348.695 178.758 351.449 179.305 353.832 180.398C356.234 181.473 358.109 183.006 359.457 184.998C360.824 186.971 361.508 189.305 361.508 192H351.283C351.283 190.926 351.059 189.979 350.609 189.158C350.18 188.338 349.525 187.693 348.646 187.225C347.768 186.756 346.664 186.521 345.336 186.521C344.047 186.521 342.963 186.717 342.084 187.107C341.205 187.498 340.541 188.025 340.092 188.689C339.643 189.334 339.418 190.047 339.418 190.828C339.418 191.473 339.594 192.059 339.945 192.586C340.316 193.094 340.834 193.572 341.498 194.021C342.182 194.471 343.002 194.9 343.959 195.311C344.936 195.721 346.029 196.121 347.24 196.512C349.506 197.234 351.518 198.045 353.275 198.943C355.053 199.822 356.547 200.828 357.758 201.961C358.988 203.074 359.916 204.344 360.541 205.77C361.186 207.195 361.508 208.807 361.508 210.604C361.508 212.518 361.137 214.217 360.395 215.701C359.652 217.186 358.588 218.445 357.201 219.48C355.814 220.496 354.154 221.268 352.221 221.795C350.287 222.322 348.129 222.586 345.746 222.586C343.559 222.586 341.4 222.312 339.271 221.766C337.162 221.199 335.248 220.34 333.529 219.188C331.811 218.016 330.434 216.521 329.398 214.705C328.383 212.869 327.875 210.691 327.875 208.172H338.188C338.188 209.422 338.354 210.477 338.686 211.336C339.018 212.195 339.506 212.889 340.15 213.416C340.795 213.924 341.586 214.295 342.523 214.529C343.461 214.744 344.535 214.852 345.746 214.852C347.055 214.852 348.109 214.666 348.91 214.295C349.711 213.904 350.297 213.396 350.668 212.771C351.039 212.127 351.225 211.424 351.225 210.662Z" fill="white"/>
</svg>
